<?xml version="1.0"?>
<svg xmlns="http://www.w3.org/2000/svg" id="Capa_1" enable-background="new 0 0 512 512" height="512px" viewBox="0 0 512 512" width="512px" class=""><g><g><path d="m320.111 417.322-30.564 61.129 61.126-30.567z" data-original="#000000" class="active-path" data-old_color="#000000" fill="#FFFFFF"/><path d="m191.889 417.322-30.562 30.562 61.126 30.567z" data-original="#000000" class="active-path" data-old_color="#000000" fill="#FFFFFF"/><path d="m24.743 460.174-8.291 33.193c-1.128 4.482-.117 9.229 2.725 12.861 2.842 3.647 7.207 5.771 11.821 5.771h191.457l-93.164-46.582c-4.307-2.153-7.324-6.255-8.101-11.016s.791-9.595 4.204-13.008l49.395-49.393h-62.726c-41.368 0-77.271 28.022-87.32 68.174z" data-original="#000000" class="active-path" data-old_color="#000000" fill="#FFFFFF"/><path d="m487.257 460.174c-10.034-40.137-45.938-68.174-87.305-68.174h-62.741l49.395 49.395c3.413 3.413 4.98 8.247 4.204 13.008s-3.794 8.862-8.101 11.016l-93.164 46.581h191.457c4.614 0 8.979-2.124 11.821-5.771 2.842-3.633 3.853-8.379 2.725-12.861z" data-original="#000000" class="active-path" data-old_color="#000000" fill="#FFFFFF"/><path d="m301 352.707c-14.145 5.043-29.145 8.293-45 8.293s-30.855-3.25-45-8.293v35.748l45 90 45-90z" data-original="#000000" class="active-path" data-old_color="#000000" fill="#FFFFFF"/><path d="m361 226v-81.528c-9.43 3.362-19.429 5.528-30 5.528h-165c-5.136 0-10.151-.529-15-1.518v77.518c0 5.138.8 10.06 1.512 15h.421c16.069-.381 29.736-6.782 44.194-13.564 16.422-7.706 35.025-16.436 58.873-16.436s42.451 8.73 58.872 16.421c14.458 6.78 28.156 13.152 44.623 13.515.707-4.92 1.505-9.82 1.505-14.936z" data-original="#000000" class="active-path" data-old_color="#000000" fill="#FFFFFF"/><path d="m302.128 254.579c-14.898-6.987-28.975-13.579-46.128-13.579s-31.23 6.606-46.128 13.594c-13.965 6.552-29.786 13.554-48.833 15.573 16.713 35.841 52.808 60.833 94.961 60.833 42.169 0 78.279-25.012 94.982-60.874-19.123-2.034-34.907-9.004-48.854-15.547z" data-original="#000000" class="active-path" data-old_color="#000000" fill="#FFFFFF"/><circle cx="256" cy="105" r="15" data-original="#000000" class="active-path" data-old_color="#000000" fill="#FFFFFF"/><path d="m391 60c0-33.091-26.909-60-60-60-3.721 0-7.368.337-10.884.981l-162.305 29.751c-21.328 3.941-36.811 22.559-36.811 44.268 0 24.814 20.186 45 45 45h47.763c-1.681-4.715-2.763-9.716-2.763-15 0-24.814 20.186-45 45-45s45 20.186 45 45c0 5.284-1.082 10.285-2.763 15h32.763c33.091 0 60-26.909 60-60z" data-original="#000000" class="active-path" data-old_color="#000000" fill="#FFFFFF"/></g></g> </svg>
